<?xml version="1.0" encoding="iso-8859-1"?>
<!-- Generator: Adobe Illustrator 19.0.0, SVG Export Plug-In . SVG Version: 6.00 Build 0)  -->
<svg version="1.1" id="Layer_1" xmlns="http://www.w3.org/2000/svg"  x="0px" y="0px"
	 viewBox="0 0 402.11 402.11" style="enable-background:new 0 0 402.11 402.11;" xml:space="preserve">
<g>
	<rect x="30.601" y="14.667" style="fill:#CE4545;" width="340.91" height="387.44"/>
	<rect x="39.598" y="183.667" style="fill:#B52828;" width="196.703" height="209.443"/>
	<rect x="48.598" y="192.667" style="fill:#2D4151;" width="178.703" height="191.443"/>
	<rect x="246.301" y="183.667" style="fill:#B52828;" width="116.211" height="218.443"/>
	<rect x="255.301" y="192.667" style="fill:#2D4151;" width="98.211" height="161.333"/>
	<rect x="255.301" y="363.333" style="fill:#CE4545;" width="98.211" height="29.776"/>
	<rect x="264.301" y="372.333" style="fill:#B52828;" width="80.211" height="11.776"/>
	<g>
		<circle style="fill:#D8D4D5;" cx="304.126" cy="274.058" r="2.469"/>
		<g>
			<polygon style="fill:#C1B9BC;" points="316.076,283.414 304.166,274.396 292.804,283.193 292.468,282.759 304.163,273.705 
				316.408,282.976 			"/>
		</g>
		<path style="fill:#4CCFC7;" d="M321.288,290.955c0,2.201-1.8,4-4,4h-25.763c-2.2,0-4-1.799-4-4v-5.293c0-2.199,1.8-4,4-4h25.763
			c2.2,0,4,1.801,4,4V290.955z"/>
		<g>
			<path style="fill:#FAFCFC;" d="M296.352,284.052c0.601,0,1.112,0.213,1.533,0.636s0.631,0.933,0.631,1.529v4.935
				c0,0.602-0.212,1.112-0.635,1.533s-0.933,0.631-1.529,0.631c-0.601,0-1.111-0.211-1.529-0.635
				c-0.418-0.423-0.628-0.933-0.628-1.529v-4.935c0-0.601,0.212-1.112,0.635-1.533C295.252,284.263,295.76,284.052,296.352,284.052z
				 M297.095,286.189c0-0.217-0.076-0.4-0.227-0.553c-0.152-0.151-0.335-0.227-0.552-0.227c-0.216,0-0.401,0.075-0.555,0.227
				s-0.231,0.336-0.231,0.553v4.949c0,0.216,0.077,0.4,0.231,0.551c0.154,0.152,0.339,0.228,0.555,0.228
				c0.217,0,0.4-0.075,0.552-0.228c0.151-0.15,0.227-0.335,0.227-0.551V286.189z"/>
			<path style="fill:#FAFCFC;" d="M301.87,284.168c0.664,0,1.193,0.209,1.587,0.628c0.365,0.398,0.548,0.908,0.548,1.529v1.313
				c0,0.597-0.208,1.106-0.624,1.529c-0.416,0.424-0.92,0.635-1.512,0.635h-0.786v3.406h-1.364v-9.04L301.87,284.168L301.87,284.168
				z M302.686,286.347c0-0.236-0.071-0.426-0.213-0.57s-0.331-0.217-0.566-0.217h-0.822v2.894h0.822c0.217,0,0.4-0.077,0.552-0.231
				c0.151-0.153,0.227-0.338,0.227-0.555L302.686,286.347L302.686,286.347z"/>
			<path style="fill:#FAFCFC;" d="M305.095,293.209v-9.047h3.881v1.37h-2.518V288h1.84v1.371h-1.84v2.467h2.518v1.371H305.095z"/>
			<path style="fill:#FAFCFC;" d="M311.445,284.162l1.81,6.08v-6.08h1.364v9.047h-1.465l-1.875-5.793v5.793h-1.364v-9.047H311.445z"
				/>
		</g>
	</g>
	<path style="fill:#B52828;" d="M337.42,97.318h-34.091h-34.091h-34.091h-34.091h-34.091h-34.091H98.781H64.689H30.598v62.983
		c0,9.414,7.632,17.046,17.046,17.046s17.046-7.632,17.046-17.046c0,9.414,7.632,17.046,17.046,17.046l0,0
		c9.414,0,17.046-7.632,17.046-17.046c0,9.414,7.632,17.046,17.046,17.046l0,0c9.414,0,17.046-7.632,17.046-17.046
		c0,9.414,7.632,17.046,17.046,17.046l0,0c9.414,0,17.046-7.632,17.046-17.046c0,9.414,7.632,17.046,17.046,17.046l0,0
		c9.414,0,17.046-7.632,17.046-17.046c0,9.414,7.632,17.046,17.046,17.046l0,0c9.414,0,17.046-7.632,17.046-17.046
		c0,9.414,7.632,17.046,17.046,17.046l0,0c9.414,0,17.046-7.632,17.046-17.046c0,9.414,7.632,17.046,17.046,17.046l0,0
		c9.414,0,17.046-7.632,17.046-17.046c0,9.414,7.632,17.046,17.046,17.046l0,0c9.414,0,17.046-7.632,17.046-17.046
		c0,9.414,7.632,17.046,17.046,17.046l0,0c9.414,0,17.046-7.632,17.046-17.046V97.318H337.42z"/>
	<g>
		<path style="fill:#3EADA2;" d="M64.691,89.987v62.98c0,9.42-7.63,17.05-17.05,17.05c-9.41,0-17.04-7.63-17.04-17.05v-62.98H64.691
			z"/>
		<path style="fill:#4CCFC7;" d="M98.781,89.987v62.98c0,9.42-7.63,17.05-17.05,17.05c-9.41,0-17.04-7.63-17.04-17.05v-62.98H98.781
			z"/>
		<path style="fill:#3EADA2;" d="M132.871,89.987v62.98c0,9.42-7.63,17.05-17.04,17.05c-9.42,0-17.05-7.63-17.05-17.05v-62.98
			H132.871z"/>
		<path style="fill:#4CCFC7;" d="M166.961,89.987v62.98c0,9.42-7.63,17.05-17.04,17.05c-9.42,0-17.05-7.63-17.05-17.05v-62.98
			H166.961z"/>
		<path style="fill:#3EADA2;" d="M201.051,89.987v62.98c0,9.42-7.63,17.05-17.04,17.05c-9.42,0-17.05-7.63-17.05-17.05v-62.98
			H201.051z"/>
		<path style="fill:#4CCFC7;" d="M235.151,89.987v62.98c0,9.42-7.64,17.05-17.05,17.05s-17.05-7.63-17.05-17.05v-62.98H235.151z"/>
		<path style="fill:#3EADA2;" d="M269.241,89.987v62.98c0,9.42-7.63,17.05-17.05,17.05c-9.41,0-17.04-7.63-17.04-17.05v-62.98
			H269.241z"/>
		<path style="fill:#4CCFC7;" d="M303.331,89.987v62.98c0,9.42-7.63,17.05-17.05,17.05c-9.41,0-17.04-7.63-17.04-17.05v-62.98
			H303.331z"/>
		<path style="fill:#3EADA2;" d="M337.421,89.987v62.98c0,9.42-7.63,17.05-17.05,17.05c-9.41,0-17.04-7.63-17.04-17.05v-62.98
			H337.421z"/>
		<path style="fill:#4CCFC7;" d="M371.511,89.987v62.98c0,9.42-7.63,17.05-17.04,17.05c-9.42,0-17.05-7.63-17.05-17.05v-62.98
			H371.511z"/>
	</g>
	<rect x="20.537" style="fill:#E6706C;" width="361.036" height="14.667"/>
	<rect x="30.601" y="14.667" style="fill:#B52828;" width="340.91" height="4"/>
	<rect x="78.529" y="28.808" style="fill:#B52828;" width="252" height="53.333"/>
	<rect x="75.055" y="25.333" style="fill:#E8CC7E;" width="252" height="53.333"/>
	<rect x="84.055" y="34.333" style="fill:#F8E5A5;" width="234" height="35.333"/>
	<g>
		<path style="fill:#4D4D4D;" d="M139.981,42.283c2.023,0,3.671,0.775,4.947,2.323v-0.308c0-0.093,0-0.196,0-0.308
			c-0.037-0.112-0.055-0.177-0.055-0.196c-0.037-0.41-0.055-0.597-0.055-0.56c0-0.634,0.283-0.951,0.848-0.951
			c0.601,0,0.901,0.383,0.901,1.148c0,0.146-0.019,0.583-0.055,1.312c-0.109,0.911-0.164,1.54-0.164,1.886
			c0,0.492,0.031,0.993,0.093,1.503l0.125,1.039v0.273c0,0.82-0.328,1.23-0.984,1.23c-0.71,0-1.057-0.388-1.039-1.166v-0.976
			c0.037-1.301-0.372-2.358-1.227-3.171c-0.854-0.813-1.972-1.22-3.353-1.22c-1.799,0-3.208,0.693-4.226,2.077
			c-1.018,1.385-1.526,3.298-1.526,5.74c0,2.497,0.523,4.442,1.572,5.836c1.047,1.394,2.51,2.091,4.387,2.091
			c1.021,0,1.936-0.246,2.747-0.738c0.811-0.492,1.38-1.138,1.708-1.94c0.219-0.528,0.328-1.239,0.328-2.132
			c0-0.838,0.346-1.257,1.039-1.257c0.747,0,1.121,0.419,1.121,1.257c0,1.95-0.674,3.544-2.022,4.783
			c-1.349,1.24-3.088,1.859-5.221,1.859c-2.46,0-4.423-0.865-5.89-2.597c-1.467-1.731-2.2-4.036-2.2-6.915
			c0-2.97,0.751-5.366,2.255-7.188C135.539,43.195,137.521,42.283,139.981,42.283z"/>
		<path style="fill:#4D4D4D;" d="M156.927,57.11c0,1.069,0.109,1.703,0.328,1.903c0.164,0.163,0.378,0.263,0.643,0.299
			c0.264,0.036,0.861,0.054,1.79,0.054h2.405c1.257,0,2.095-0.166,2.515-0.499c0.419-0.332,0.629-1.002,0.629-2.008
			c0-0.27-0.01-0.584-0.027-0.944c-0.037-0.701-0.055-1.123-0.055-1.267c0-0.791,0.318-1.186,0.957-1.186
			c0.765,0,1.148,0.365,1.148,1.093c0,0.219-0.009,0.392-0.027,0.519l-0.191,1.394c-0.055,0.401-0.082,0.82-0.082,1.257
			c0,0.255,0.023,0.633,0.068,1.134s0.068,0.879,0.068,1.134c0,0.82-0.465,1.23-1.394,1.23c-0.182,0-0.601-0.032-1.257-0.096
			c-0.437-0.031-1.111-0.064-2.022-0.096h-2.05h-4.374c-0.437,0-1.166,0.037-2.187,0.109c-0.146,0-0.396,0.014-0.751,0.041
			s-0.633,0.041-0.833,0.041c-0.766,0-1.148-0.328-1.148-0.984c0-0.583,0.282-0.875,0.847-0.875c0.146,0,0.364,0.027,0.656,0.082
			s0.51,0.082,0.656,0.082c0.929,0,1.394-0.683,1.394-2.05V46.52c0-1.348-0.465-2.023-1.394-2.023c-0.255,0-0.447,0.018-0.574,0.055
			c-0.292,0.055-0.538,0.082-0.738,0.082c-0.237,0-0.438-0.086-0.602-0.26c-0.164-0.173-0.246-0.387-0.246-0.642
			c0-0.637,0.392-0.957,1.175-0.957c0.109,0,0.246,0.009,0.41,0.027l1.449,0.164c0.802,0.091,1.394,0.136,1.776,0.136
			c0.474,0,1.057-0.045,1.75-0.136l1.257-0.164c0.146-0.018,0.264-0.027,0.355-0.027c0.82,0,1.23,0.319,1.23,0.957
			c0,0.255-0.082,0.469-0.246,0.642c-0.164,0.173-0.365,0.26-0.602,0.26c-0.182,0-0.428-0.027-0.738-0.082
			c-0.128-0.036-0.319-0.055-0.574-0.055c-0.929,0-1.394,0.67-1.394,2.011V57.11z"/>
		<path style="fill:#4D4D4D;" d="M179.23,61.717c-2.423,0-4.341-0.875-5.753-2.624s-2.118-4.118-2.118-7.106
			c0-3.024,0.711-5.398,2.132-7.12s3.38-2.583,5.876-2.583c2.387,0,4.287,0.838,5.699,2.515s2.118,3.945,2.118,6.806
			c0,3.098-0.715,5.558-2.146,7.38C183.608,60.806,181.672,61.717,179.23,61.717z M179.285,44.251c-1.749,0-3.107,0.675-4.072,2.023
			c-0.966,1.349-1.449,3.244-1.449,5.685c0,2.479,0.482,4.396,1.449,5.754c0.965,1.358,2.314,2.036,4.045,2.036
			c1.695,0,3.039-0.706,4.032-2.118s1.49-3.33,1.49-5.753c0-2.442-0.474-4.323-1.421-5.644
			C182.41,44.912,181.052,44.251,179.285,44.251z"/>
		<path style="fill:#4D4D4D;" d="M200.358,57.507c0,1.367,0.464,2.05,1.394,2.05c0.146,0,0.364-0.023,0.656-0.068
			c0.292-0.045,0.51-0.068,0.656-0.068c0.237,0,0.442,0.087,0.615,0.26c0.173,0.174,0.26,0.378,0.26,0.615
			c0,0.638-0.41,0.957-1.23,0.957c-0.037,0-0.091,0-0.164,0c-0.091-0.018-0.155-0.027-0.191-0.027l-1.339-0.191
			c-0.51-0.073-1.084-0.109-1.722-0.109c-0.693,0-1.303,0.037-1.832,0.109l-1.367,0.191c-0.055,0-0.119,0.009-0.191,0.027
			c-0.092,0-0.155,0-0.191,0c-0.802,0-1.203-0.319-1.203-0.957c0-0.583,0.291-0.875,0.875-0.875c0.146,0,0.364,0.023,0.656,0.068
			c0.292,0.046,0.51,0.068,0.656,0.068c0.911,0,1.367-0.683,1.367-2.05v-1.913v-2.405v-2.323v-4.455
			c0-1.294-0.666-1.941-1.996-1.941h-0.847c-1.312,0-1.968,0.638-1.968,1.913c0,0.456,0.009,0.765,0.027,0.929l0.109,1.011
			c0.018,0.164,0.027,0.392,0.027,0.683c0,1.148-0.355,1.722-1.066,1.722c-0.675,0-1.012-0.419-1.012-1.257
			c0-0.237,0.018-0.647,0.055-1.23c0.055-0.875,0.082-1.43,0.082-1.667c0-0.455-0.015-0.929-0.045-1.421
			c-0.061-0.966-0.091-1.376-0.091-1.23c0-0.765,0.346-1.148,1.037-1.148c0.254,0,0.846,0.027,1.773,0.082
			c0.091,0,0.837,0.037,2.238,0.109h3.11c0.364,0,1.337-0.016,2.92-0.048c0.345,0,0.937-0.024,1.773-0.072
			c0.746-0.048,1.328-0.072,1.746-0.072c0.91,0,1.365,0.374,1.365,1.121v0.055c0,0.182-0.023,0.519-0.068,1.011
			c-0.046,0.492-0.096,1.021-0.15,1.585v0.301c0,0.273,0.027,0.702,0.082,1.285c0.073,0.765,0.109,1.239,0.109,1.421
			c0,0.747-0.355,1.121-1.066,1.121c-0.693,0-1.039-0.458-1.039-1.373c0-0.329,0.027-0.819,0.082-1.469
			c0.055-0.65,0.082-1.139,0.082-1.469c0-1.263-0.72-1.895-2.16-1.895h-0.765c-0.674,0-1.157,0.141-1.449,0.424
			s-0.456,0.752-0.492,1.408l-0.109,1.913L200.358,57.507L200.358,57.507z"/>
		<path style="fill:#4D4D4D;" d="M216.703,50.592h8.746v-4.018c0-1.367-0.464-2.05-1.394-2.05c-0.109,0-0.305,0.018-0.587,0.055
			c-0.283,0.037-0.524,0.055-0.724,0.055c-0.583,0-0.875-0.296-0.875-0.889c0-0.647,0.392-0.97,1.175-0.97
			c0.255,0,0.72,0.059,1.394,0.178c0.674,0.119,1.293,0.177,1.859,0.177c0.911,0,1.822-0.075,2.733-0.226
			c0.528-0.086,0.875-0.129,1.039-0.129c0.802,0,1.203,0.324,1.203,0.971c0,0.592-0.283,0.888-0.847,0.888
			c-0.146,0-0.365-0.018-0.656-0.055c-0.292-0.036-0.511-0.055-0.656-0.055c-0.929,0-1.394,0.683-1.394,2.05V57.48
			c0,1.367,0.456,2.05,1.367,2.05c0.146,0,0.369-0.023,0.67-0.068c0.3-0.045,0.523-0.068,0.669-0.068
			c0.564,0,0.847,0.292,0.847,0.875c0,0.656-0.401,0.984-1.203,0.984c-0.164,0-0.519-0.055-1.066-0.164
			c-0.638-0.127-1.33-0.191-2.077-0.191c-1.002,0-1.85,0.055-2.542,0.164c-0.802,0.127-1.239,0.191-1.312,0.191
			c-0.802,0-1.203-0.323-1.203-0.97c0-0.592,0.292-0.889,0.875-0.889c0.146,0,0.364,0.018,0.656,0.055s0.51,0.055,0.656,0.055
			c0.766,0,1.221-0.501,1.367-1.503c0.018-0.127,0.027-0.947,0.027-2.46v-3.088h-8.746v3.116c0,1.513,0.009,2.333,0.027,2.46
			c0.146,1.002,0.601,1.503,1.367,1.503c0.146,0,0.369-0.023,0.669-0.068c0.301-0.045,0.523-0.068,0.669-0.068
			c0.565,0,0.848,0.292,0.848,0.875c0,0.656-0.401,0.984-1.203,0.984c-0.128,0-0.52-0.055-1.175-0.164
			c-0.875-0.146-1.64-0.219-2.296-0.219c-0.766,0-1.585,0.073-2.46,0.219l-0.656,0.109c-0.219,0.036-0.337,0.055-0.355,0.055
			c-0.838,0-1.257-0.323-1.257-0.97c0-0.233,0.086-0.44,0.259-0.619s0.378-0.27,0.615-0.27c0.164,0,0.41,0.023,0.738,0.068
			c0.2,0.046,0.392,0.068,0.574,0.068c0.929,0,1.394-0.683,1.394-2.05V46.52c0-1.367-0.465-2.05-1.394-2.05
			c-0.128,0-0.328,0.027-0.602,0.082s-0.51,0.082-0.71,0.082c-0.237,0-0.442-0.091-0.615-0.273s-0.259-0.392-0.259-0.629
			c0-0.637,0.419-0.957,1.257-0.957c0.164,0,0.5,0.046,1.011,0.137c0.692,0.128,1.54,0.191,2.542,0.191
			c0.382,0,0.952-0.055,1.708-0.164s1.316-0.164,1.681-0.164c0.801,0,1.203,0.323,1.203,0.97c0,0.251-0.082,0.462-0.246,0.633
			c-0.164,0.171-0.365,0.256-0.602,0.256c-0.201,0-0.447-0.023-0.738-0.068c-0.292-0.045-0.492-0.068-0.601-0.068
			c-0.893,0-1.349,0.683-1.367,2.05L216.703,50.592z"/>
		<path style="fill:#4D4D4D;" d="M238.268,46.52c0-1.348-0.465-2.023-1.394-2.023c-0.255,0-0.447,0.018-0.574,0.055
			c-0.292,0.055-0.538,0.082-0.738,0.082c-0.237,0-0.438-0.086-0.602-0.26c-0.164-0.173-0.246-0.387-0.246-0.642
			c0-0.637,0.381-0.957,1.144-0.957c0.018,0,0.154,0.009,0.408,0.027c2.724,0.182,3.995,0.273,3.813,0.273h0.272l6.564-0.191
			c0.127,0,0.599-0.027,1.417-0.082c0.291-0.018,0.553-0.027,0.79-0.027c0.944,0,1.417,0.419,1.417,1.257
			c0,0.146-0.026,0.611-0.078,1.394c-0.039,0.583-0.059,1.121-0.059,1.613c0,0.638,0.015,1.084,0.046,1.339
			c0.061,0.529,0.091,0.92,0.091,1.176c0,0.693-0.324,1.039-0.97,1.039c-0.647,0-0.97-0.483-0.97-1.449v-1.421
			c0-1.531-0.319-2.433-0.957-2.706c-0.474-0.2-1.695-0.301-3.663-0.301c-1.294,0-2.06,0.027-2.296,0.082
			c-0.784,0.201-1.175,0.747-1.175,1.64v1.23c0,0.146,0,0.346,0,0.601s0,0.437,0,0.547v0.355c0,0.729,0.161,1.148,0.485,1.257
			c0.125,0.037,0.341,0.055,0.647,0.055h1.105c1.132,0,1.698-0.392,1.698-1.175c0-0.219-0.023-0.501-0.068-0.847
			s-0.068-0.656-0.068-0.929c0-0.729,0.324-1.093,0.971-1.093c0.646,0,0.97,0.392,0.97,1.175c0,0.146-0.059,0.711-0.177,1.695
			c-0.101,0.838-0.151,1.576-0.151,2.214c0,0.365,0.036,1.011,0.109,1.941c0.018,0.146,0.063,0.465,0.137,0.957
			c0.055,0.401,0.082,0.72,0.082,0.957c0,0.656-0.328,0.984-0.984,0.984c-0.638,0-0.957-0.383-0.957-1.148
			c0-0.2,0.023-0.492,0.068-0.875s0.068-0.674,0.068-0.875c0-0.783-0.519-1.175-1.558-1.175h-1.23c-0.529,0-0.852,0.091-0.97,0.273
			c-0.119,0.182-0.178,0.574-0.178,1.175v1.695c0,0.292,0.009,0.683,0.027,1.175c0.018,0.601,0.027,1.002,0.027,1.203
			c0.018,0.729,0.164,1.185,0.437,1.366c0.2,0.128,0.674,0.191,1.421,0.191h3.717c1.075,0,1.813-0.159,2.214-0.478
			c0.4-0.319,0.602-0.916,0.602-1.79c0-0.273-0.014-0.679-0.041-1.216s-0.041-0.943-0.041-1.216c0-0.82,0.323-1.23,0.971-1.23
			c0.683,0,1.024,0.419,1.024,1.257c0,0.328-0.014,0.829-0.041,1.503s-0.041,1.175-0.041,1.503c0,0.255,0.014,0.633,0.041,1.134
			s0.041,0.879,0.041,1.134c0,0.857-0.419,1.285-1.257,1.285c-0.201,0-0.52-0.018-0.957-0.055c-0.219-0.018-0.62-0.027-1.203-0.027
			c0.127,0-0.583-0.018-2.132-0.055c-1.549-0.036-2.889-0.055-4.018-0.055c-1.713,0-3.389,0.055-5.029,0.164
			c-0.073,0-0.155,0.009-0.246,0.027c-0.091,0-0.146,0-0.164,0c-0.766,0-1.148-0.328-1.148-0.984c0-0.583,0.282-0.875,0.847-0.875
			c0.091,0,0.337,0.018,0.738,0.055c0.2,0.055,0.392,0.082,0.574,0.082c0.929,0,1.394-0.683,1.394-2.05V46.52H238.268z"/>
		<path style="fill:#4D4D4D;" d="M263.331,42.283c1.786,0,3.243,0.574,4.373,1.722v-0.383c0-0.711,0.282-1.066,0.848-1.066
			c0.619,0,0.929,0.392,0.929,1.175v0.164c0,0.037-0.027,0.31-0.082,0.82s-0.082,1.121-0.082,1.831c0,0.091,0.018,0.383,0.055,0.875
			l0.082,1.093c0.018,0.092,0.027,0.219,0.027,0.383c0,0.875-0.337,1.312-1.011,1.312c-0.711,0-1.066-0.364-1.066-1.093V48.98
			l0.055-0.738c0.018-0.255,0.027-0.455,0.027-0.601c0-1.093-0.369-1.95-1.107-2.569s-1.754-0.929-3.047-0.929
			c-1.185,0-2.128,0.292-2.829,0.875c-0.702,0.583-1.052,1.367-1.052,2.351c0,1.148,0.52,1.995,1.558,2.542
			c0.583,0.292,1.603,0.556,3.061,0.793c2.168,0.346,3.653,0.82,4.456,1.421c1.203,0.893,1.804,2.159,1.804,3.799
			c0,1.713-0.614,3.107-1.841,4.182s-2.813,1.613-4.758,1.613c-2.073,0-3.791-0.656-5.154-1.968c0,0.072,0,0.153,0,0.243
			s0,0.144,0,0.162c0.073,0.288,0.109,0.476,0.109,0.566c0,0.665-0.336,0.998-1.009,0.998c-0.73,0-1.095-0.383-1.095-1.148
			c0-0.091,0.027-0.164,0.082-0.219l0.125-1.421c0.063-0.711,0.093-1.166,0.093-1.367c0-0.364-0.05-0.911-0.15-1.64
			s-0.15-1.275-0.15-1.64c0-0.82,0.346-1.23,1.039-1.23c0.71,0,1.066,0.412,1.066,1.235v0.494c0,0.146,0,0.357,0,0.631
			c0,1.372,0.436,2.461,1.308,3.266s2.053,1.207,3.543,1.207c1.381,0,2.48-0.328,3.297-0.984s1.227-1.549,1.227-2.679
			c0-1.731-1.093-2.788-3.28-3.17l-1.558-0.273c-1.549-0.273-2.751-0.592-3.608-0.957c-0.784-0.346-1.408-0.888-1.872-1.626
			c-0.465-0.738-0.697-1.572-0.697-2.501c0-1.603,0.583-2.906,1.75-3.909C259.96,42.785,261.473,42.283,263.331,42.283z"/>
	</g>
	<g>
		<circle style="fill:#4D4D4D;" cx="118.055" cy="52" r="3.333"/>
		<circle style="fill:#4D4D4D;" cx="284.055" cy="52" r="3.333"/>
	</g>
	<rect x="173.801" y="314.337" style="fill:#F8E5A5;" width="3" height="69.77"/>
	<rect x="101.131" y="314.337" style="fill:#F8E5A5;" width="3" height="69.77"/>
	<path style="fill:#3EADA2;" d="M117.511,266.697c-1.84,5.78-1.69,11.97,0.38,17.6l0.01,0.03c1.73,4.67,2.53,9.63,2.35,14.6
		l3.751,58.47c-7.078,0.97-15.581,1.45-21.371,1.45s-14.293-0.48-21.371-1.45l3.751-58.47c-0.18-4.97,0.62-9.93,2.35-14.6l0.01-0.03
		c2.07-5.63,2.22-11.82,0.38-17.6l-5.5-17.19c-0.64-2,0.48-4.15,2.49-4.78l2.95-0.92l0.96-0.3l3.04-0.95l0.8-0.25l0.23-0.07
		l1.38-0.43c1.62-0.51,2.81-1.9,3.05-3.58l0.33-2.3c0.14-1.04,1.03-1.81,2.08-1.81h6.14c1.05,0,1.94,0.77,2.08,1.81l0.33,2.3
		c0.24,1.68,1.43,3.07,3.05,3.58l1.39,0.43l0.22,0.07l0.81,0.25l3.03,0.95l0.96,0.3l2.95,0.92c2.01,0.63,3.13,2.78,2.49,4.78
		L117.511,266.697z"/>
	<path style="fill:#46AFCC;" d="M190.181,289.697c-1.84,5.78-1.69,11.97,0.37,17.6c0.01,0.01,0.01,0.02,0.02,0.03
		c1.72,4.59,2.54,9.47,2.36,14.36l-0.33,21.28c-5.73,0.97-11.52,1.46-17.3,1.46c-5.79,0-11.58-0.49-17.3-1.46l-0.34-21.28
		c-0.17-4.89,0.64-9.77,2.37-14.36c0-0.01,0.01-0.02,0.01-0.03c2.07-5.63,2.22-11.82,0.37-17.6l-1.88-5.9l-3.61-11.29
		c-0.64-2,0.47-4.15,2.48-4.78l1.61-0.5l7.76-2.42c1.62-0.51,2.8-1.9,3.04-3.58l0.33-2.3c0.15-1.04,1.04-1.81,2.08-1.81h6.15
		c1.05,0,1.93,0.77,2.08,1.81l0.33,2.3c0.24,1.68,1.42,3.07,3.04,3.58l7.77,2.42l1.6,0.5c2.01,0.63,3.13,2.78,2.48,4.78l-3.6,11.28
		v0.01L190.181,289.697z"/>
	<path style="fill:#F8E5A5;" d="M112.771,242.307c-0.92,4.76-5.11,8.36-10.14,8.36s-9.22-3.6-10.14-8.36l1.61-0.5
		c1.62-0.51,2.81-1.9,3.05-3.58l0.33-2.3c0.14-1.04,1.03-1.81,2.08-1.81h6.14c1.05,0,1.94,0.77,2.08,1.81l0.33,2.3
		c0.24,1.68,1.43,3.07,3.05,3.58L112.771,242.307z"/>
	<path style="fill:#F8E5A5;" d="M185.438,265.307c-0.92,4.76-5.11,8.36-10.14,8.36s-9.22-3.6-10.14-8.36l1.61-0.5
		c1.62-0.51,2.81-1.9,3.05-3.58l0.33-2.3c0.14-1.04,1.03-1.81,2.08-1.81h6.14c1.05,0,1.94,0.77,2.08,1.81l0.33,2.3
		c0.24,1.68,1.43,3.07,3.05,3.58L185.438,265.307z"/>
	<g>
		<path style="fill:#F8E5A5;" d="M162.011,275.287c0,3.62-1.4,6.79-3.48,8.51l-3.61-11.29c-0.64-2,0.47-4.15,2.48-4.78l1.61-0.5
			C160.821,269.007,162.011,271.957,162.011,275.287z"/>
		<path style="fill:#F8E5A5;" d="M195.671,272.507l-3.6,11.28c-2.09-1.71-3.49-4.88-3.49-8.5c0-3.33,1.19-6.28,3.01-8.06l1.6,0.5
			C195.201,268.357,196.321,270.507,195.671,272.507z"/>
	</g>
	<path style="fill:#CE4545;" d="M113.581,242.557l-0.81-0.25l-0.22-0.07c0.14,1.16,0.21,2.37,0.21,3.6
		c0,9.79-4.55,17.75-10.13,17.75c-5.58,0-10.12-7.96-10.12-17.75c0-1.23,0.07-2.44,0.21-3.6l-0.23,0.07l-0.8,0.25
		c-0.12,1.07-0.18,2.16-0.18,3.28c0,10.34,4.99,18.75,11.12,18.75s11.13-8.41,11.13-18.75
		C113.761,244.717,113.701,243.627,113.581,242.557z"/>
	<rect x="101.131" y="381.542" style="fill:#E8CC7E;" width="3" height="2.565"/>
	<rect x="173.801" y="381.542" style="fill:#E8CC7E;" width="3" height="2.565"/>
	<path style="fill:#319B8E;" d="M30.601,152.967h34.09c0,9.42-7.63,17.05-17.05,17.05C38.231,170.017,30.601,162.387,30.601,152.967
		z"/>
	<path style="fill:#40BFB2;" d="M64.691,152.967h34.09c0,9.42-7.63,17.05-17.05,17.05C72.321,170.017,64.691,162.387,64.691,152.967
		z"/>
	<path style="fill:#319B8E;" d="M98.781,152.967h34.09c0,9.42-7.63,17.05-17.04,17.05
		C106.411,170.017,98.781,162.387,98.781,152.967z"/>
	<path style="fill:#40BFB2;" d="M132.871,152.967h34.09c0,9.42-7.63,17.05-17.04,17.05
		C140.501,170.017,132.871,162.387,132.871,152.967z"/>
	<path style="fill:#319B8E;" d="M166.961,152.967h34.09c0,9.42-7.63,17.05-17.04,17.05
		C174.591,170.017,166.961,162.387,166.961,152.967z"/>
	<path style="fill:#40BFB2;" d="M201.051,152.967h34.1c0,9.42-7.64,17.05-17.05,17.05S201.051,162.387,201.051,152.967z"/>
	<path style="fill:#319B8E;" d="M235.151,152.967h34.09c0,9.42-7.63,17.05-17.05,17.05
		C242.781,170.017,235.151,162.387,235.151,152.967z"/>
	<path style="fill:#40BFB2;" d="M269.241,152.967h34.09c0,9.42-7.63,17.05-17.05,17.05
		C276.871,170.017,269.241,162.387,269.241,152.967z"/>
	<path style="fill:#319B8E;" d="M303.331,152.967h34.09c0,9.42-7.63,17.05-17.05,17.05
		C310.961,170.017,303.331,162.387,303.331,152.967z"/>
	<path style="fill:#40BFB2;" d="M371.511,152.967c0,9.42-7.63,17.05-17.04,17.05c-9.42,0-17.05-7.63-17.05-17.05H371.511z"/>
	<path style="opacity:0.2;fill:#FCFAFA;enable-background:new    ;" d="M347.304,204.657v144h-82.376
		C264.928,348.656,337.213,325.532,347.304,204.657z"/>
	<path style="opacity:0.2;fill:#FCFAFA;enable-background:new    ;" d="M54.76,379.532h167.591v-95.871
		C222.349,283.661,195.437,367.787,54.76,379.532z"/>
</g>
<g>
</g>
<g>
</g>
<g>
</g>
<g>
</g>
<g>
</g>
<g>
</g>
<g>
</g>
<g>
</g>
<g>
</g>
<g>
</g>
<g>
</g>
<g>
</g>
<g>
</g>
<g>
</g>
<g>
</g>
</svg>
